# xmcd
#
# Track frame offsets:
#	150
#	11505
#	24256
#	45877
#	56977
#	75065
#	89765
#	104497
#	123702
#	134777
#	147427
#	157445
#
# Disc length: 2668
#
# Revision: 4
# Processed by: cddbd v1.5.1PL0 Copyright (c) Steve Scherf et al.
# Submitted via: audiograbber 1.82.00
# Normalized: r3:DSETVAR2
#
DISCID=a70a6a0c
DTITLE=Various Artist - Blues Anthology - CD 1
DYEAR=1997
DGENRE=Blues
TTITLE0=John Lee Hooker - Boom Boom
TTITLE1=Jimmy Reed - Shame
TTITLE2=Lightnin' Hopkins - Grandma Told Grandpa
TTITLE3=Memphis Slim - Kansas City
TTITLE4=Brownie McGhee, Sonny Terry and Lightnin' Hopkins - I'm A Stranger Here
TTITLE5=Leadbelly - In New Orleans
TTITLE6=Etta James - Rock Me Baby
TTITLE7=Little Walter and Otis Rush - You're So Fine
TTITLE8=Lightnin' Slim - Bad Luck Blues
TTITLE9=Mississippi Fred McDowell - Got To Move
TTITLE10=Memphis Slim - The Comeback
TTITLE11=Joe Turner - The Things I Used To Do
EXTD=Disky - BX884722
EXTT0=
EXTT1=
EXTT2=
EXTT3=
EXTT4=
EXTT5=
EXTT6=
EXTT7=
EXTT8=
EXTT9=
EXTT10=
EXTT11=
PLAYORDER=
